<svg width="13" height="15" viewBox="0 0 13 15" fill="none" xmlns="http://www.w3.org/2000/svg">
<path fill-rule="evenodd" clip-rule="evenodd" d="M2.98111 5.38229C3.04633 4.60413 3.25156 3.62762 3.69797 2.77362C4.25818 1.70187 5.23538 0.770508 6.80176 0.770508C8.36905 0.770508 9.34079 1.70303 9.89359 2.77631C10.3332 3.62988 10.531 4.60541 10.5905 5.38321C11.8528 5.7374 12.7783 6.89661 12.7783 8.27197V11.4707C12.7783 13.1276 11.4352 14.4707 9.77832 14.4707H3.79004C2.13318 14.4707 0.790039 13.1276 0.790039 11.4707V8.27197C0.790039 6.89539 1.71719 5.73538 2.98111 5.38229ZM3.9967 5.27197C4.06927 4.63339 4.24747 3.88104 4.5842 3.23688C5.03152 2.38113 5.72076 1.77051 6.80176 1.77051C7.88177 1.77051 8.56461 2.37997 9.00458 3.23419C9.3367 3.87903 9.50912 4.63272 9.57648 5.27197H3.9967ZM7.60254 9.87158C7.60254 10.3235 7.23615 10.6899 6.78418 10.6899C6.33221 10.6899 5.96582 10.3235 5.96582 9.87158C5.96582 9.41962 6.33221 9.05322 6.78418 9.05322C7.23615 9.05322 7.60254 9.41962 7.60254 9.87158Z" fill="#0A66C2"/>
</svg>
