<svg width="31" height="31" viewBox="0 0 31 31" fill="none" xmlns="http://www.w3.org/2000/svg">
<path d="M24.1707 4.73193C23.6676 4.7331 23.1697 4.82973 22.7057 5.01625C22.2418 5.20277 21.8209 5.47548 21.4675 5.81866L6.75796 19.9149L6.70028 20.1939L5.68262 25.0971L5.3924 26.4058L6.75889 26.1277L11.8751 25.1524L12.1653 25.0962L26.8749 11C27.2339 10.6619 27.5191 10.2586 27.7137 9.81374C27.9084 9.36886 28.0086 8.89129 28.0086 8.40888C28.0086 7.92648 27.9084 7.4489 27.7137 7.00403C27.5191 6.55915 27.2339 6.15589 26.8749 5.81777C26.5213 5.47464 26.1002 5.20203 25.6361 5.01567C25.172 4.8293 24.674 4.73287 24.1707 4.73193ZM24.1707 6.43111C24.6396 6.43111 25.1121 6.63616 25.5661 7.07209C26.4712 7.93862 26.4712 8.87914 25.5661 9.74656L24.8982 10.359L22.1354 7.71218L22.7754 7.07209C23.2303 6.63616 23.7019 6.43111 24.1707 6.43111ZM20.8285 8.96651L23.5893 11.6133L12.3402 22.3932C11.7329 21.2545 10.7661 20.3285 9.57745 19.7473L20.8285 8.96651ZM8.38677 21.1969C8.93731 21.4091 9.43741 21.7258 9.85702 22.128C10.2766 22.5301 10.6071 23.0094 10.8286 23.537L7.77562 24.1218L8.38677 21.1969Z" fill="#585C60"/>
<path d="M8.38677 21.1969C8.93731 21.4091 9.43741 21.7258 9.85702 22.128C10.2766 22.5301 10.6071 23.0094 10.8286 23.537L7.77562 24.1218L8.38677 21.1969Z" fill="#585C60"/>
<path d="M24.1707 6.43111C24.6396 6.43111 25.1121 6.63616 25.5661 7.07209C26.4712 7.93862 26.4712 8.87914 25.5661 9.74656L24.8982 10.359L22.1354 7.71218L22.7754 7.07209C23.2303 6.63616 23.7019 6.43111 24.1707 6.43111Z" fill="#585C60"/>
</svg>
