<svg width="57" height="15" viewBox="0 0 57 15" fill="none" xmlns="http://www.w3.org/2000/svg">
<rect width="57" height="15" fill="#F5F5F5"/>
<rect x="-1394" y="-1436" width="5729.76" height="3277.44" stroke="#0A66C2" stroke-width="8" stroke-dasharray="16 16"/>
<g clip-path="url(#clip0_1_10)">
<rect width="1440" height="926" transform="translate(-1008 -865)" fill="#F3F2EF"/>
<path fill-rule="evenodd" clip-rule="evenodd" d="M43.6853 1.59057C42.9131 2.36278 42.9131 3.60563 42.9131 6.09134V9.60667C42.9131 12.0924 42.9131 13.3352 43.6853 14.1074C44.4575 14.8796 45.7004 14.8796 48.1861 14.8796H51.7014C54.1871 14.8796 55.43 14.8796 56.2022 14.1074C56.9744 13.3352 56.9744 12.0924 56.9744 9.60667V6.09134C56.9744 3.60563 56.9744 2.36278 56.2022 1.59057C55.43 0.818359 54.1871 0.818359 51.7014 0.818359H48.1861C45.7004 0.818359 44.4575 0.818359 43.6853 1.59057ZM46.4226 5.22319C45.8437 5.22319 45.3738 4.74851 45.3738 4.16326C45.3738 3.57801 45.8437 3.10332 46.4226 3.10332C47.0016 3.10332 47.4715 3.57801 47.4715 4.16326C47.4715 4.74851 47.0022 5.22319 46.4226 5.22319ZM45.5236 12.5947V5.9851H47.3216V12.5947H45.5236ZM52.7156 12.5947H54.5136V8.5334C54.5136 5.37702 51.1556 5.49178 50.3183 7.04564V5.9851H48.5203V12.5947H50.3183V9.2274C50.3183 7.35689 52.7156 7.20367 52.7156 9.2274V12.5947Z" fill="#0A66C2"/>
<path d="M6.53821 11.2226V12.7629H1.71321V11.2226H6.53821ZM2.35171 3.17869V12.7629H0.376953V3.17869H2.35171Z" fill="#0A66C2"/>
<path d="M9.95744 5.64056V12.7629H8.05509V5.64056H9.95744ZM7.9366 3.78429C7.9366 3.50782 8.03315 3.27963 8.22624 3.0997C8.41932 2.91978 8.67824 2.82982 9.00298 2.82982C9.32333 2.82982 9.58004 2.91978 9.77313 3.0997C9.97061 3.27963 10.0693 3.50782 10.0693 3.78429C10.0693 4.06075 9.97061 4.28895 9.77313 4.46887C9.58004 4.64879 9.32333 4.73876 9.00298 4.73876C8.67824 4.73876 8.41932 4.64879 8.22624 4.46887C8.03315 4.28895 7.9366 4.06075 7.9366 3.78429Z" fill="#0A66C2"/>
<path d="M13.7848 7.16113V12.7629H11.889V5.64056H13.6663L13.7848 7.16113ZM13.5083 8.95158H12.9949C12.9949 8.42498 13.0629 7.95103 13.1989 7.52975C13.335 7.10408 13.5259 6.74204 13.7716 6.44363C14.0174 6.14084 14.3092 5.91045 14.6471 5.75247C14.9894 5.5901 15.3712 5.50891 15.7925 5.50891C16.126 5.50891 16.431 5.55718 16.7074 5.65373C16.9839 5.75027 17.2209 5.90386 17.4184 6.11451C17.6202 6.32515 17.7738 6.60381 17.8791 6.95049C17.9888 7.29717 18.0437 7.72065 18.0437 8.22092V12.7629H16.1348V8.21434C16.1348 7.89837 16.0909 7.65263 16.0031 7.47709C15.9153 7.30156 15.7859 7.17868 15.6147 7.10847C15.448 7.03387 15.2417 6.99657 14.996 6.99657C14.7415 6.99657 14.5198 7.04703 14.3311 7.14796C14.1468 7.2489 13.9932 7.38932 13.8704 7.56925C13.7519 7.74478 13.6619 7.95103 13.6005 8.18801C13.539 8.42498 13.5083 8.6795 13.5083 8.95158Z" fill="#0A66C2"/>
<path d="M21.7855 2.64551V12.7629H19.8897V2.64551H21.7855ZM26.2748 5.64056L23.181 9.1688L21.5222 10.8474L20.831 9.47818L22.1475 7.80622L23.9972 5.64056H26.2748ZM24.3066 12.7629L22.2002 9.4716L23.5101 8.32624L26.492 12.7629H24.3066Z" fill="#0A66C2"/>
<path d="M30.6419 12.8945C30.089 12.8945 29.5931 12.8068 29.1542 12.6312C28.7154 12.4513 28.3424 12.2034 28.0352 11.8874C27.7324 11.5714 27.4998 11.205 27.3375 10.7881C27.1751 10.3668 27.0939 9.91921 27.0939 9.44527V9.18197C27.0939 8.6422 27.1707 8.14851 27.3243 7.7009C27.4779 7.25328 27.6973 6.86492 27.9825 6.53579C28.2722 6.20666 28.6232 5.95433 29.0357 5.7788C29.4483 5.59887 29.9134 5.50891 30.4312 5.50891C30.9359 5.50891 31.3835 5.59229 31.7741 5.75905C32.1646 5.92581 32.4916 6.16278 32.7549 6.46996C33.0226 6.77715 33.2244 7.14577 33.3605 7.57583C33.4965 8.0015 33.5645 8.47544 33.5645 8.99766V9.78756H27.9036V8.52372H31.7017V8.3789C31.7017 8.1156 31.6534 7.88082 31.5569 7.67457C31.4647 7.46393 31.3243 7.29717 31.1356 7.17429C30.9469 7.05142 30.7055 6.98998 30.4115 6.98998C30.1614 6.98998 29.9463 7.04484 29.7664 7.15455C29.5865 7.26426 29.4395 7.41785 29.3254 7.61532C29.2157 7.8128 29.1323 8.04538 29.0752 8.31307C29.0226 8.57638 28.9963 8.86601 28.9963 9.18197V9.44527C28.9963 9.73051 29.0357 9.99382 29.1147 10.2352C29.1981 10.4765 29.3144 10.685 29.4636 10.8605C29.6172 11.0361 29.8015 11.1721 30.0165 11.2686C30.236 11.3652 30.4839 11.4135 30.7604 11.4135C31.1027 11.4135 31.4208 11.3476 31.7148 11.216C32.0133 11.0799 32.27 10.8759 32.485 10.6038L33.4066 11.6043C33.2574 11.8194 33.0533 12.0256 32.7944 12.2231C32.5399 12.4206 32.2327 12.5829 31.8728 12.7102C31.513 12.8331 31.1027 12.8945 30.6419 12.8945Z" fill="#0A66C2"/>
<path d="M39.2547 11.2094V2.65209H41.1637V12.7629H39.4456L39.2547 11.2094ZM34.7523 9.28729V9.14906C34.7523 8.6049 34.8137 8.11121 34.9366 7.66798C35.0595 7.22037 35.2394 6.83639 35.4764 6.51604C35.7133 6.19569 36.0052 5.94775 36.3518 5.77221C36.6985 5.59668 37.0935 5.50891 37.5367 5.50891C37.9536 5.50891 38.3178 5.59668 38.6294 5.77221C38.9454 5.94775 39.2131 6.19788 39.4325 6.52262C39.6563 6.84297 39.8362 7.22257 39.9722 7.6614C40.1083 8.09585 40.207 8.57199 40.2685 9.08981V9.39261C40.207 9.88849 40.1083 10.3493 39.9722 10.7749C39.8362 11.2006 39.6563 11.5736 39.4325 11.894C39.2131 12.2099 38.9454 12.4557 38.6294 12.6312C38.3134 12.8068 37.9448 12.8945 37.5235 12.8945C37.0803 12.8945 36.6854 12.8046 36.3387 12.6246C35.9964 12.4447 35.7068 12.1924 35.4698 11.8676C35.2372 11.5429 35.0595 11.1611 34.9366 10.7223C34.8137 10.2834 34.7523 9.80512 34.7523 9.28729ZM36.6481 9.14906V9.28729C36.6481 9.58131 36.67 9.85558 36.7139 10.1101C36.7622 10.3646 36.839 10.5906 36.9443 10.7881C37.054 10.9812 37.1944 11.1326 37.3656 11.2423C37.5411 11.3476 37.7539 11.4003 38.0041 11.4003C38.3288 11.4003 38.5965 11.3279 38.8071 11.1831C39.0178 11.0339 39.1779 10.8298 39.2877 10.5709C39.4018 10.312 39.4676 10.0136 39.4851 9.67566V8.81335C39.472 8.53688 39.4325 8.28894 39.3666 8.06952C39.3052 7.84571 39.2131 7.65482 39.0902 7.49684C38.9717 7.33886 38.8225 7.21598 38.6426 7.12822C38.467 7.04045 38.2586 6.99657 38.0172 6.99657C37.7715 6.99657 37.5608 7.05361 37.3853 7.16771C37.2098 7.27742 37.0671 7.42882 36.9574 7.62191C36.8521 7.815 36.7731 8.04319 36.7205 8.30649C36.6722 8.5654 36.6481 8.84626 36.6481 9.14906Z" fill="#0A66C2"/>
</g>
<defs>
<clipPath id="clip0_1_10">
<rect width="1440" height="926" fill="white" transform="translate(-1008 -865)"/>
</clipPath>
</defs>
</svg>
