<svg width="19" height="15" viewBox="0 0 19 15" fill="none" xmlns="http://www.w3.org/2000/svg">
<path fill-rule="evenodd" clip-rule="evenodd" d="M13.3321 0.257812H6.18342L4.07008 3.09355H0.595459V14.6788H18.9201V3.09355H15.4455L13.3321 0.257812ZM2.01333 4.51141H4.78171L6.89506 1.67568H12.6205L14.7338 4.51141H17.5022V6.93943H13.6677C13.1634 5.25765 11.6041 4.03198 9.75785 4.03198C7.91156 4.03198 6.35231 5.25765 5.84804 6.93943H2.01333V4.51141ZM2.01333 7.64836V13.2609H17.5022V7.64836H13.8128C13.8302 7.80101 13.8391 7.95612 13.8391 8.1132C13.8391 10.3672 12.0118 12.1944 9.75785 12.1944C7.50385 12.1944 5.67663 10.3672 5.67663 8.1132C5.67663 7.95612 5.68552 7.80101 5.70285 7.64836H2.01333ZM6.46732 7.37148C6.80511 5.86574 8.15054 4.74092 9.75785 4.74092C11.3652 4.74092 12.7106 5.86574 13.0484 7.37148C13.1018 7.60982 13.1301 7.85799 13.1301 8.1132C13.1301 9.97566 11.6203 11.4855 9.75785 11.4855C7.89539 11.4855 6.38557 9.97566 6.38557 8.1132C6.38557 7.85799 6.41385 7.60982 6.46732 7.37148Z" fill="#0A66C2"/>
</svg>
