<svg width="28" height="27" viewBox="0 0 28 27" fill="none" xmlns="http://www.w3.org/2000/svg">
<path d="M7.48883 6.04636C8.54033 5.09776 9.78084 4.38267 11.1287 3.94816C11.2401 3.91227 11.3596 3.91029 11.4721 3.94248C11.5846 3.97466 11.6851 4.03956 11.7606 4.12893L13.317 5.9629C13.4279 6.09338 13.5658 6.1982 13.7212 6.27009C13.8765 6.34197 14.0457 6.37921 14.2169 6.37922C14.3881 6.37923 14.5573 6.34201 14.7127 6.27014C14.8681 6.19827 15.006 6.09347 15.1168 5.96301L16.6745 4.12708C16.7502 4.03766 16.8509 3.97279 16.9636 3.94074C17.0763 3.90869 17.196 3.91091 17.3074 3.94711C18.6532 4.38373 19.8919 5.09891 20.943 6.04607C21.03 6.12449 21.0918 6.22705 21.1204 6.34069C21.149 6.45434 21.1432 6.57392 21.1036 6.68422L20.2935 8.95175C20.2359 9.11299 20.2141 9.28482 20.2296 9.45533C20.245 9.62584 20.2974 9.79094 20.383 9.93921C20.4686 10.0875 20.5854 10.2154 20.7254 10.314C20.8653 10.4126 21.025 10.4796 21.1935 10.5104L23.561 10.9419C23.6759 10.9629 23.782 11.0176 23.8658 11.099C23.9497 11.1805 24.0074 11.2849 24.0319 11.3992C24.3291 12.7832 24.3299 14.2145 24.0343 15.5989C24.0098 15.7132 23.952 15.8177 23.8681 15.8991C23.7842 15.9806 23.678 16.0352 23.5629 16.0562L21.1934 16.488C21.025 16.5188 20.8653 16.5858 20.7254 16.6845C20.5854 16.7831 20.4686 16.911 20.383 17.0592C20.2975 17.2075 20.2451 17.3725 20.2297 17.543C20.2142 17.7135 20.236 17.8853 20.2935 18.0465L21.1044 20.3146C21.1437 20.4247 21.1495 20.544 21.1209 20.6573C21.0923 20.7707 21.0308 20.8731 20.944 20.9514C19.8928 21.9001 18.6527 22.6154 17.3051 23.0502C17.1938 23.0861 17.0742 23.0881 16.9617 23.0559C16.8492 23.0237 16.7488 22.9588 16.6732 22.8694L15.1168 21.0355C15.0059 20.905 14.8681 20.8002 14.7127 20.7283C14.5573 20.6564 14.3881 20.6192 14.2169 20.6191C14.0457 20.6191 13.8765 20.6564 13.7212 20.7282C13.5658 20.8001 13.4279 20.9049 13.317 21.0354L11.7567 22.8711C11.681 22.9602 11.5807 23.0248 11.4683 23.0567C11.3559 23.0887 11.2365 23.0866 11.1254 23.0507C9.77955 22.6141 8.54081 21.8989 7.48984 20.9517C7.40276 20.8733 7.34099 20.7707 7.31239 20.6571C7.28378 20.5434 7.28964 20.4239 7.32922 20.3136L8.14035 18.0466C8.19791 17.8854 8.21971 17.7135 8.20426 17.543C8.1888 17.3725 8.13645 17.2074 8.05084 17.0592C7.96523 16.9109 7.8484 16.783 7.70845 16.6844C7.5685 16.5858 7.40878 16.5188 7.24036 16.488L4.87286 16.0565C4.75793 16.0354 4.65183 15.9807 4.568 15.8993C4.48417 15.8179 4.42638 15.7135 4.40195 15.5992C4.10467 14.2152 4.10385 12.7839 4.39956 11.3995C4.42401 11.2852 4.48185 11.1807 4.56576 11.0992C4.64967 11.0178 4.75586 10.9631 4.87088 10.9421L7.24046 10.5103C7.40886 10.4796 7.56855 10.4125 7.70846 10.3139C7.84838 10.2153 7.96518 10.0874 8.05077 9.93916C8.13637 9.79091 8.1887 9.62582 8.20416 9.45534C8.21961 9.28485 8.19781 9.11305 8.14027 8.95182L7.32942 6.68382C7.2901 6.5737 7.28435 6.4544 7.31291 6.34102C7.34148 6.22764 7.40306 6.12529 7.48985 6.04695L7.48883 6.04636ZM12.1716 12.3183C11.8584 12.8608 11.7736 13.5054 11.9357 14.1104C12.0978 14.7155 12.4936 15.2313 13.0361 15.5445C13.5785 15.8577 14.2231 15.9425 14.8282 15.7804C15.4332 15.6183 15.949 15.2225 16.2622 14.68C16.5754 14.1376 16.6603 13.4929 16.4981 12.8879C16.336 12.2829 15.9402 11.7671 15.3978 11.4539C14.8553 11.1407 14.2107 11.0558 13.6057 11.218C13.0006 11.3801 12.4848 11.7759 12.1716 12.3183Z" fill="black"/>
</svg>
