<svg width="22" height="22" viewBox="0 0 22 22" fill="none" xmlns="http://www.w3.org/2000/svg">
<path fill-rule="evenodd" clip-rule="evenodd" d="M12.4569 0.796931C12.3767 0.616367 12.1976 0.5 12 0.5C10.067 0.5 8.5 2.067 8.5 4V7.5H3.34268C2.61033 7.49258 1.91149 7.80668 1.43084 8.35943C0.949541 8.91292 0.735592 9.64985 0.845661 10.375L2.22565 19.375C2.22567 19.3751 2.22563 19.3748 2.22565 19.375C2.41259 20.6064 3.47745 21.5126 4.72263 21.5H19C20.3807 21.5 21.5 20.3807 21.5 19V12C21.5 10.6193 20.3807 9.5 19 9.5H16.3249L12.4569 0.796931ZM16.5 10.5H19C19.8284 10.5 20.5 11.1716 20.5 12V19C20.5 19.8284 19.8284 20.5 19 20.5H16.5V10.5ZM15.5 20.5V10.1061L11.6839 1.5198C10.4524 1.67519 9.5 2.72637 9.5 4V8C9.5 8.27614 9.27614 8.5 9 8.5H3.34L3.33434 8.49997C2.89427 8.49498 2.47422 8.68351 2.18544 9.0156C1.89671 9.34764 1.76834 9.78971 1.83431 10.2248C1.83432 10.2248 1.8343 10.2247 1.83431 10.2248L3.21422 19.2242C3.32638 19.9638 3.96638 20.5085 4.71435 20.5L15.5 20.5Z" fill="#414141"/>
</svg>
