<svg width="13" height="13" viewBox="0 0 13 13" fill="none" xmlns="http://www.w3.org/2000/svg">
<g id="Group 15446">
<g id="Group 15443">
<path id="Rectangle 4793" d="M4.75586 6.8488C4.75586 6.8488 5.08067 5.84277 6.76758 5.84277C8.45449 5.84277 8.77344 6.8488 8.77344 6.8488V12.8403H4.75586V6.8488Z" fill="#666666"/>
<circle id="Ellipse 695" cx="6.76465" cy="2.83301" r="2.00879" fill="#666666"/>
</g>
<g id="Group 15444">
<path id="Rectangle 4793_2" d="M9.78027 8.35056C9.78027 8.35056 10.0237 7.59668 11.2878 7.59668C12.5519 7.59668 12.7909 8.35056 12.7909 8.35056V12.8403H9.78027V8.35056Z" fill="#666666"/>
<circle id="Ellipse 695_2" cx="11.2856" cy="5.34125" r="1.50531" fill="#666666"/>
</g>
<g id="Group 15445">
<path id="Rectangle 4793_3" d="M0.738281 8.35056C0.738281 8.35056 0.981681 7.59668 2.24579 7.59668C3.5099 7.59668 3.74891 8.35056 3.74891 8.35056V12.8403H0.738281V8.35056Z" fill="#666666"/>
<circle id="Ellipse 695_3" cx="2.24359" cy="5.34125" r="1.50531" fill="#666666"/>
</g>
</g>
</svg>
