<svg width="37" height="37" viewBox="0 0 37 37" fill="none" xmlns="http://www.w3.org/2000/svg">
<path fill-rule="evenodd" clip-rule="evenodd" d="M2.6569 2.81217C0.705078 4.764 0.705078 7.90541 0.705078 14.1882V23.0735C0.705078 29.3563 0.705078 32.4977 2.6569 34.4495C4.60872 36.4014 7.75014 36.4014 14.033 36.4014H22.9182C29.201 36.4014 32.3424 36.4014 34.2943 34.4495C36.2461 32.4977 36.2461 29.3563 36.2461 23.0735V14.1882C36.2461 7.90541 36.2461 4.764 34.2943 2.81217C32.3424 0.860352 29.201 0.860352 22.9182 0.860352H14.033C7.75014 0.860352 4.60872 0.860352 2.6569 2.81217ZM9.57577 11.9939C8.11241 11.9939 6.92476 10.7941 6.92476 9.31484C6.92476 7.83558 8.11241 6.63577 9.57577 6.63577C11.0391 6.63577 12.2268 7.83558 12.2268 9.31484C12.2268 10.7941 11.0406 11.9939 9.57577 11.9939ZM7.30347 30.626V13.9197H11.8481V30.626H7.30347ZM25.4818 30.626H30.0264V20.3607C30.0264 12.3827 21.5386 12.6728 19.4224 16.6003V13.9197H14.8778V30.626H19.4224V22.1149C19.4224 17.387 25.4818 16.9997 25.4818 22.1149V30.626Z" fill="#0A66C2"/>
</svg>
