<svg width="25" height="25" viewBox="0 0 25 25" fill="none" xmlns="http://www.w3.org/2000/svg">
<g clip-path="url(#clip0_1_2769)">
<path d="M20.3959 0.389648H4.96734C2.60157 0.392461 0.684453 2.30958 0.681641 4.67534V20.1039C0.684453 22.4697 2.60157 24.3868 4.96734 24.3896H20.3959C22.7617 24.3868 24.6788 22.4697 24.6816 20.1039V4.67534C24.6788 2.30958 22.7617 0.392461 20.3959 0.389648ZM16.9674 13.2468H13.5388V16.6754C13.5388 17.1488 13.155 17.5325 12.6816 17.5325C12.2082 17.5325 11.8245 17.1488 11.8245 16.6754V13.2468H8.39592C7.92252 13.2468 7.53876 12.863 7.53876 12.3896C7.53876 11.9162 7.92252 11.5325 8.39592 11.5325H11.8245V8.10393C11.8245 7.63053 12.2083 7.24677 12.6817 7.24677C13.1551 7.24677 13.5388 7.63053 13.5388 8.10393V11.5325H16.9674C17.4408 11.5325 17.8245 11.9163 17.8245 12.3897C17.8245 12.8631 17.4407 13.2468 16.9674 13.2468Z" fill="#646464" fill-opacity="0.6"/>
</g>
<defs>
<clipPath id="clip0_1_2769">
<rect width="24" height="24" fill="white" transform="translate(0.681641 0.389648)"/>
</clipPath>
</defs>
</svg>
