<svg width="25" height="21" viewBox="0 0 25 21" fill="none" xmlns="http://www.w3.org/2000/svg">
<path d="M7.05286 5.57994H18.2127V6.69593H7.05286V5.57994ZM7.05286 10.0439H14.8648V8.92791H7.05286V10.0439ZM24.9087 7.81192C24.9252 9.03385 24.6456 10.2416 24.0936 11.3319C23.5417 12.4222 22.7339 13.3626 21.7393 14.0726L12.6328 20.0878V15.6238H8.16885C6.097 15.6238 4.11001 14.8008 2.64499 13.3358C1.17997 11.8708 0.356934 9.88377 0.356934 7.81192C0.356934 5.74007 1.17997 3.75308 2.64499 2.28806C4.11001 0.823039 6.097 3.0873e-08 8.16885 0H17.0968C19.1686 0 21.1556 0.823039 22.6206 2.28806C24.0856 3.75308 24.9087 5.74007 24.9087 7.81192ZM22.6767 7.81192C22.6767 6.33203 22.0888 4.91275 21.0424 3.8663C19.9959 2.81986 18.5767 2.23198 17.0968 2.23198H8.16885C6.68896 2.23198 5.26968 2.81986 4.22324 3.8663C3.1768 4.91275 2.58891 6.33203 2.58891 7.81192C2.58891 9.29181 3.1768 10.7111 4.22324 11.7575C5.26968 12.804 6.68896 13.3919 8.16885 13.3919H14.8648V15.9363L20.4447 12.2759C21.1518 11.7695 21.7247 11.0983 22.1137 10.3204C22.5026 9.54247 22.6959 8.68142 22.6767 7.81192Z" fill="#6A6A6A"/>
</svg>
