<svg width="18" height="19" viewBox="0 0 18 19" fill="none" xmlns="http://www.w3.org/2000/svg">
<path fill-rule="evenodd" clip-rule="evenodd" d="M16 6.91357H2V14.9136C2 16.0182 2.89551 16.9136 4 16.9136H14C15.1045 16.9136 16 16.0182 16 14.9136V6.91357ZM0 0.913574V16.9136C0 18.0182 0.895508 18.9136 2 18.9136H16C17.1045 18.9136 18 18.0182 18 16.9136V0.913574H0ZM4 2.91357H6V4.91357H4V2.91357ZM14 2.91357H12V4.91357H14V2.91357Z" fill="#C37D16"/>
<path d="M7.87773 12.0152L7.23144 11.8607L7.55022 8.91357H10.8122V9.6087H8.23581L8.04367 11.2185C8.16012 11.1561 8.30713 11.0979 8.48472 11.0437C8.66521 10.9895 8.87191 10.9624 9.1048 10.9624C9.39884 10.9624 9.6623 11.0098 9.8952 11.1046C10.1281 11.1968 10.3261 11.3296 10.4891 11.503C10.655 11.6764 10.7817 11.8851 10.869 12.129C10.9563 12.3729 11 12.6453 11 12.9461C11 13.2306 10.9578 13.4922 10.8734 13.7306C10.7918 13.9691 10.6681 14.1778 10.5022 14.3567C10.3362 14.5328 10.1266 14.6697 9.87336 14.7672C9.623 14.8648 9.32751 14.9136 8.9869 14.9136C8.73071 14.9136 8.48763 14.8811 8.25764 14.816C8.03057 14.7483 7.82678 14.6466 7.64629 14.5111C7.4687 14.3729 7.32314 14.2022 7.20961 13.9989C7.09898 13.793 7.02911 13.5518 7 13.2754H7.76856C7.80349 13.4976 7.87336 13.6846 7.97817 13.8363C8.08297 13.9881 8.2198 14.1033 8.38865 14.1819C8.56041 14.2577 8.75983 14.2957 8.9869 14.2957C9.17904 14.2957 9.34934 14.2645 9.49782 14.2022C9.64629 14.1399 9.77147 14.0504 9.87336 13.9339C9.97525 13.8174 10.0524 13.6764 10.1048 13.5111C10.1601 13.3458 10.1878 13.1602 10.1878 12.9542C10.1878 12.7672 10.1601 12.5938 10.1048 12.4339C10.0495 12.274 9.96652 12.1344 9.8559 12.0152C9.74818 11.896 9.61572 11.8038 9.45852 11.7388C9.30131 11.671 9.12082 11.6372 8.91703 11.6372C8.64629 11.6372 8.44105 11.671 8.30131 11.7388C8.16448 11.8065 8.02329 11.8987 7.87773 12.0152Z" fill="#C37D16"/>
</svg>
