<svg width="13" height="14" viewBox="0 0 13 14" fill="none" xmlns="http://www.w3.org/2000/svg">
<path id="Exclude" fill-rule="evenodd" clip-rule="evenodd" d="M0.77832 2.91699C0.77832 1.81238 1.67383 0.916992 2.77832 0.916992H10.875C11.9795 0.916992 12.875 1.81238 12.875 2.91699V11.0137C12.875 12.1183 11.9795 13.0137 10.875 13.0137H2.77832C1.67383 13.0137 0.77832 12.1183 0.77832 11.0137V2.91699ZM7.05078 10.2427C6.62012 10.2893 6.13867 10.257 5.94824 10.1206C5.76465 9.98486 5.6377 9.80432 5.56641 9.57886C5.52441 9.4458 5.50098 9.30005 5.49609 9.1416C5.49219 9.03162 5.49707 8.91565 5.51074 8.79358L6.25684 5.20654L7.04395 5.29614L6.64746 8.77466C6.61426 9.06677 6.6543 9.27356 6.7666 9.39514C6.88086 9.51074 7.0332 9.57935 7.22363 9.60107C7.29395 9.60913 7.35938 9.6134 7.41992 9.61401C7.46191 9.6145 7.50195 9.61304 7.54004 9.60986C7.63672 9.60291 7.73242 9.59253 7.82422 9.57886C7.82422 9.57886 7.80859 9.78943 7.73828 9.89771C7.66016 10.0189 7.44434 10.1206 7.44434 10.1206C7.44434 10.1206 7.19727 10.2269 7.05078 10.2427ZM6.80762 4.68005C7.125 4.68005 7.38281 4.42249 7.38281 4.10486C7.38281 3.78723 7.125 3.52966 6.80762 3.52966C6.49023 3.52966 6.23242 3.78723 6.23242 4.10486C6.23242 4.26294 6.2959 4.40613 6.39941 4.51001C6.50391 4.61499 6.64844 4.68005 6.80762 4.68005Z" fill="#666666"/>
</svg>
