<svg width="21" height="21" viewBox="0 0 21 21" fill="none" xmlns="http://www.w3.org/2000/svg">
<circle cx="10.5534" cy="10.394" r="9.6745" fill="#4E8ADD"/>
<path d="M15.2121 9.48206H17.0363C17.5291 11.5387 16.7568 14.4025 16.3091 15.5774C16.3091 15.5774 14.7051 15.4401 13.6926 15.5774C12.6716 15.7158 12.1656 16.1076 11.1503 16.2826C9.42197 16.5804 6.65946 16.2826 6.65946 16.2826C5.67964 16.0747 5.75635 15.1196 5.91717 14.6681C4.6553 14.3712 4.85223 13.2858 5.10842 12.7803C4.04188 12.1628 4.3832 11.0495 4.68718 10.57C4.42988 10.5466 3.91528 10.2963 3.91528 9.48206C3.91528 8.66785 4.42988 8.3712 4.68718 8.32465H10.2655C9.72747 7.59959 8.64447 5.86178 8.61641 4.71104C8.58834 3.5603 9.32966 3.10887 9.70383 3.02699C9.90267 2.98016 10.3916 3.11804 10.7564 4.04425C11.1213 4.97045 13.8789 8.05537 15.2121 9.48206Z" fill="#CCDEF5"/>
<path fill-rule="evenodd" clip-rule="evenodd" d="M9.66959 2.88233C9.9773 2.80986 10.5193 3.03753 10.8944 3.9897C10.9773 4.20005 11.2059 4.55155 11.5378 4.99491C11.8659 5.43331 12.2844 5.94781 12.7343 6.47942C13.6144 7.51927 14.6105 8.61943 15.2764 9.33345H17.0362C17.1048 9.33345 17.1646 9.38055 17.1806 9.44734C17.4337 10.504 17.3604 11.757 17.1717 12.8848C16.9825 14.0149 16.6749 15.034 16.4477 15.6301C16.4241 15.6921 16.3623 15.7309 16.2963 15.7252L16.292 15.7249L16.2787 15.7238L16.2268 15.7197C16.1815 15.7163 16.1154 15.7115 16.0329 15.7061C15.8679 15.6955 15.6374 15.6827 15.3755 15.6742C14.8495 15.6571 14.2057 15.6575 13.7123 15.7244C13.2183 15.7914 12.8489 15.9193 12.4694 16.0559C12.4513 16.0624 12.4332 16.0689 12.4151 16.0754C12.052 16.2063 11.6728 16.343 11.1753 16.4288C10.2948 16.5805 9.15897 16.5798 8.25047 16.5425C7.79471 16.5238 7.39335 16.4957 7.10587 16.4723C6.9621 16.4606 6.84673 16.4501 6.76718 16.4425L6.67563 16.4334L6.65174 16.431L6.64396 16.4301L6.6283 16.4284C6.35955 16.3714 6.15415 16.2602 6.00325 16.1119C5.8527 15.964 5.76375 15.7857 5.71664 15.6038C5.64137 15.3132 5.67075 15.0067 5.73074 14.7712C5.46999 14.6902 5.2686 14.5717 5.11847 14.4251C4.93979 14.2505 4.84135 14.0434 4.79789 13.8322C4.72441 13.4752 4.80721 13.1056 4.91885 12.837C4.425 12.5057 4.24559 12.0581 4.23522 11.6268C4.22655 11.2666 4.33523 10.9225 4.46222 10.6674C4.34176 10.622 4.21215 10.5446 4.0975 10.4254C3.90699 10.2272 3.7666 9.92268 3.7666 9.48194C3.7666 8.5887 4.33992 8.23641 4.66055 8.1784C4.66928 8.17683 4.67812 8.17603 4.68699 8.17603H9.97624C9.71887 7.80536 9.39709 7.29297 9.11727 6.74487C8.77414 6.07276 8.48267 5.32533 8.46777 4.71454C8.43771 3.48202 9.23921 2.97649 9.6719 2.88181L9.70364 3.02687L9.66959 2.88233ZM4.77118 10.7184C4.64408 10.9437 4.5239 11.2781 4.53212 11.6197C4.54066 11.9749 4.68696 12.3447 5.13432 12.6227H5.41639C5.41639 12.6227 5.63776 12.5825 5.65499 12.6627C5.67221 12.7429 5.41639 12.837 5.41639 12.837L5.21076 12.91C5.10571 13.1439 5.02714 13.4728 5.08878 13.7724C5.12179 13.9328 5.19471 14.0844 5.326 14.2126C5.4507 14.3344 5.63484 14.4418 5.90401 14.5118C5.90401 14.5118 6.37151 14.382 6.40407 14.4573C6.43663 14.5325 6.0371 14.7778 6.0371 14.7778C5.9743 14.9842 5.93744 15.2719 6.00414 15.5294C6.04022 15.6687 6.10576 15.7963 6.21137 15.9001C6.31547 16.0023 6.46555 16.0883 6.68275 16.1356L6.70579 16.138L6.79551 16.1468C6.87379 16.1543 6.98774 16.1647 7.12996 16.1763C7.41446 16.1995 7.81174 16.2272 8.26265 16.2457C9.16748 16.2829 10.277 16.2822 11.1249 16.1361C11.5961 16.0549 11.9537 15.926 12.3182 15.7947C12.3351 15.7886 12.3519 15.7825 12.3688 15.7764C12.7515 15.6387 13.1455 15.5015 13.6724 15.4301C14.1917 15.3597 14.8561 15.3602 15.3852 15.3774C15.6509 15.386 15.8847 15.399 16.0521 15.4098C16.114 15.4138 16.1669 15.4175 16.2089 15.4206C16.425 14.8304 16.7037 13.8818 16.8787 12.8358C17.0578 11.7657 17.1262 10.6074 16.9175 9.63043H15.2119C15.1708 9.63043 15.1315 9.61337 15.1034 9.58332C14.4357 8.86874 13.4113 7.73897 12.5076 6.67128C12.0559 6.13755 11.6332 5.61799 11.3 5.17288C10.9706 4.73275 10.7177 4.3513 10.6181 4.09855C10.2635 3.1983 9.82767 3.15022 9.73768 3.17141L9.73538 3.17195C9.41973 3.24102 8.73859 3.63834 8.76467 4.7073C8.77784 5.24725 9.0419 5.94409 9.38178 6.60983C9.71906 7.27048 10.1198 7.87922 10.3845 8.23604C10.418 8.2811 10.4231 8.34116 10.3979 8.39127C10.3727 8.44139 10.3214 8.47302 10.2653 8.47302H4.7014C4.50129 8.51564 4.06359 8.76154 4.06359 9.48194C4.06359 9.85541 4.1805 10.0832 4.31161 10.2196C4.44329 10.3565 4.59844 10.411 4.69431 10.4214C4.69431 10.4214 5.01561 10.4578 5.09763 10.4578C5.17964 10.4578 5.41639 10.5699 5.41639 10.5699L4.77118 10.7184Z" fill="#0A66C2"/>
</svg>
