<svg width="20" height="22" viewBox="0 0 20 22" fill="none" xmlns="http://www.w3.org/2000/svg">
<path d="M18.1761 10.3744L14.1197 6.31804C13.3224 5.51959 12.7221 4.54632 12.3665 3.47545L11.8581 1.95041C11.6673 1.38309 11.3034 0.889833 10.8178 0.539991C10.3321 0.190149 9.74896 0.00131002 9.1504 1.89327e-05C8.77574 -0.00134593 8.40448 0.0710974 8.05782 0.213213C7.71116 0.355328 7.39589 0.564332 7.13 0.828292C6.86411 1.09225 6.65282 1.406 6.50819 1.75161C6.36356 2.09723 6.28842 2.46795 6.28706 2.84261V4.00454C6.28937 5.0091 6.45043 6.00698 6.76428 6.96125L7.21038 8.29955H2.26178C1.67847 8.29955 1.11905 8.53127 0.706587 8.94374C0.294124 9.3562 0.0624044 9.91562 0.0624044 10.4989C0.0638364 10.8574 0.151262 11.2104 0.317341 11.5281C0.48342 11.8458 0.723304 12.119 1.01685 12.3248C0.723034 12.5255 0.48256 12.7948 0.316251 13.1093C0.149942 13.4238 0.0628113 13.7742 0.0624044 14.13C0.0541605 14.5683 0.17587 14.9992 0.412189 15.3685C0.648508 15.7377 0.988858 16.0288 1.39033 16.2049C1.20385 16.5191 1.10364 16.8769 1.09985 17.2423C1.09894 17.8047 1.3135 18.346 1.69941 18.7551C2.08532 19.1642 2.61326 19.4098 3.17473 19.4417V19.5869C3.17473 20.1702 3.40645 20.7297 3.81891 21.1421C4.23138 21.5546 4.7908 21.7863 5.37411 21.7863H13.1445C14.4331 21.7851 15.704 21.4869 16.8586 20.9148L17.1802 20.7489H19.7738V10.3744H18.1761ZM17.6989 18.674H16.6615L15.9041 19.0578C15.0356 19.4849 14.0812 19.7084 13.1134 19.7114H5.99657C5.76507 19.7206 5.53715 19.6521 5.34913 19.5167C5.16111 19.3813 5.02382 19.1869 4.95913 18.9645L4.69977 18.0619L3.81794 17.6365C3.61484 17.5538 3.44318 17.4088 3.32761 17.2224C3.21205 17.036 3.15852 16.8178 3.17473 16.5991L3.3511 15.5616L2.56264 14.7939C2.3911 14.6264 2.28289 14.4046 2.25641 14.1663C2.22993 13.928 2.28682 13.6879 2.4174 13.4868L3.10211 12.356L2.34478 11.2148C2.30144 11.1621 2.26915 11.1013 2.24982 11.0358C2.2305 10.9704 2.22453 10.9018 2.23227 10.8341C2.24001 10.7663 2.26131 10.7008 2.2949 10.6414C2.32849 10.5821 2.37367 10.5301 2.42777 10.4886C2.52628 10.4065 2.65262 10.3657 2.7805 10.3744H10.0945L8.73542 6.30767C8.48761 5.56511 8.36149 4.78736 8.36194 4.00454V2.85298C8.36719 2.64828 8.45085 2.45341 8.59565 2.30861C8.74044 2.16382 8.93532 2.08015 9.14002 2.0749C9.3027 2.07502 9.46125 2.12613 9.59337 2.22104C9.72549 2.31594 9.82455 2.44987 9.8766 2.604L10.4368 4.14979C10.8844 5.51393 11.6406 6.75647 12.6466 7.78083L17.3151 12.4493H17.6989V18.674Z" fill="#6A6A6A"/>
</svg>
