<svg width="23" height="17" viewBox="0 0 23 17" fill="none" xmlns="http://www.w3.org/2000/svg">
<path d="M22.2535 7.13383L17.5554 14.2677H15.1197L19.1962 8.15295H6.96676C6.44211 8.14213 5.92047 8.23479 5.43163 8.42562C4.9428 8.61646 4.49635 8.90173 4.11779 9.26514C3.73923 9.62856 3.43598 10.063 3.22537 10.5436C3.01475 11.0243 2.90089 11.5417 2.89029 12.0664V12.2294C2.88797 12.6582 2.95331 13.0847 3.08392 13.4931L4.0317 16.3059H1.87117L1.12721 14.0435C0.944682 13.4351 0.851983 12.8034 0.852051 12.1683C0.868163 10.5572 1.5195 9.01754 2.66448 7.884C3.80947 6.75046 5.35558 6.11463 6.96676 6.11471H19.1962L15.1197 0H17.5554L22.2535 7.13383Z" fill="#6A6A6A"/>
</svg>
